<?xml version="1.0" encoding="UTF-8"?>
<svg width="1200pt" height="1200pt" version="1.1" viewBox="0 0 1200 1200" xmlns="http://www.w3.org/2000/svg">
 <path d="m781.97 319.69c152.72 59.672 260.63 188.58 268.92 339.74 17.344-0.46875 31.125-5.8594 42.703-17.391v-0.046875c23.156-23.203 23.156-60.797-0.046875-84.047-7.3125-7.2656-7.3125-19.125-0.046875-26.438s19.125-7.3594 26.438-0.046875c18.234 18.141 28.5 42.797 28.5 68.531s-10.266 50.391-28.5 68.531c-17.156 17.156-42.938 29.062-69.047 28.359-6.0469 110.3-65.156 208.78-156 277.13v165.05h-156.52v-87.609c-96.562 27.609-198.94 27.609-295.5 0v87.609h-156.52v-165.05c-50.719-38.203-91.594-85.734-118.78-139.55h-116.02v-234.47h87.328c10.594-44.109 29.391-85.828 55.453-122.95l-64.5-111.56h180.42c27.984-18.328 57.797-33.656 89.016-45.797 4.6875 10.359 10.219 20.297 16.5 29.766h-16.453 0.046875c-31.078 0-56.25 25.172-56.25 56.25s25.172 56.25 56.25 56.25h382.5c31.078 0 56.25-25.172 56.25-56.25s-25.172-56.25-56.25-56.25h-16.406c6.3281-9.4688 11.812-19.406 16.547-29.766zm-191.34-258.74c-51.984 0-101.25 23.484-133.97 63.938-32.719 40.406-45.422 93.422-34.641 144.32 10.828 50.859 44.016 94.125 90.328 117.75h-112.97c-10.359 0-18.75 8.3906-18.75 18.75 0 10.359 8.3906 18.75 18.75 18.75h382.5c10.359 0 18.75-8.3906 18.75-18.75 0-10.359-8.3906-18.75-18.75-18.75h-112.97c46.312-23.625 79.5-66.891 90.328-117.75 10.781-50.906-1.9219-103.92-34.641-144.32-32.719-40.453-81.984-63.938-133.97-63.938zm66.047 132c0-27.844-21-49.734-47.297-56.719v-16.453c0-10.312-8.3906-18.75-18.75-18.75s-18.75 8.4375-18.75 18.75v16.453c-26.297 6.9844-47.297 28.828-47.297 56.719 0 34.359 31.547 59.156 66.047 59.156 24.188 0 37.828 21.844 21.281 36-17.719 15.141-49.875 5.0156-49.875-14.344l0.046875-0.046875c0-10.359-8.3906-18.75-18.75-18.75s-18.75 8.3906-18.75 18.75c0 27.844 21 49.734 47.297 56.719v16.453c0 10.359 8.3906 18.75 18.75 18.75s18.75-8.3906 18.75-18.75v-16.453c26.297-6.9844 47.297-28.828 47.297-56.719 0-34.359-31.547-59.109-66.047-59.109-24.188 0-37.828-21.844-21.281-36 17.719-15.141 49.875-5.0156 49.875 14.344h-0.046875c0 10.359 8.3906 18.75 18.75 18.75s18.75-8.3906 18.75-18.75zm-376.55 410.48c8.8594-31.312 41.203-49.688 72.609-41.25 1.5938 0.42188 3.1875 0.60938 4.8281 0.60938 21.891 0 26.25-31.969 3.75-37.125v0.046875c-51-12.984-103.03 17.109-117.28 67.734-1.6406 4.9219-1.1719 10.266 1.2188 14.766 2.4375 4.5469 6.6094 7.9219 11.578 9.2812s10.266 0.65625 14.672-2.0156 7.5469-6.9844 8.625-12.047z" fill-rule="evenodd"/>
</svg>
