<?xml version="1.0" encoding="UTF-8"?>
<svg width="1200pt" height="1200pt" version="1.1" viewBox="0 0 1200 1200" xmlns="http://www.w3.org/2000/svg">
 <path d="m724.08 654.24c-10.922 0-19.781 8.8594-19.781 19.781 0 11.062 8.8594 19.922 19.781 19.922 11.062 0 19.922-8.8594 19.922-19.922 0-10.875-8.8594-19.781-19.922-19.781zm0 0c-10.922 0-19.781 8.8594-19.781 19.781 0 11.062 8.8594 19.922 19.781 19.922 11.062 0 19.922-8.8594 19.922-19.922 0-10.875-8.8594-19.781-19.922-19.781zm53.062-331.69v-28.922h4.0781c21.375 0 38.766-17.391 38.766-38.766l-0.046875-46.078c0-21.375-17.391-38.766-38.766-38.766h-114.14c-21.375 0-38.766 17.391-38.766 38.766v46.078c0 21.375 17.391 38.766 38.766 38.766h4.0781v28.922c-56.391 8.5312-108.47 30.141-153 61.922h-101.3c-9.1406 0-16.453 7.3125-16.453 16.453 0 9.2344 7.3125 16.547 16.453 16.547h61.312c-11.531 11.062-22.312 22.781-32.297 35.297h-115.55c-9.1406 0-16.547 7.4531-16.547 16.547 0 9.1406 7.4531 16.547 16.547 16.547h92.297c-19.688 31.547-34.688 66.375-43.781 103.45h-58.219c-9.1406 0-16.547 7.4531-16.547 16.547 0 9.1406 7.4531 16.547 16.547 16.547h51.844c-1.6875 11.531-2.7656 23.297-3.375 35.062h-181.5c-9.1406 0-16.547 7.4531-16.547 16.547 0 9.1406 7.4531 16.547 16.547 16.547h181.55c0.60938 11.859 1.6875 23.625 3.375 35.156h-51.844c-9.1406 0-16.547 7.3125-16.547 16.547 0 9.1406 7.4531 16.547 16.547 16.547h58.219c9.1406 37.078 24.141 71.859 43.781 103.45h-92.297c-9.1406 0-16.547 7.3125-16.547 16.547 0 9.1406 7.4531 16.453 16.547 16.453h115.55c9.9375 12.469 20.766 24.234 32.297 35.297h-61.312c-9.1406 0-16.453 7.4531-16.453 16.547 0 9.1406 7.3125 16.547 16.453 16.547h101.3c58.219 41.531 129.24 66.234 205.92 66.234 196.31 0.046875 355.92-159.66 355.92-355.82 0-178.13-131.76-325.69-302.86-351.52zm-72.844-28.922h39.703v25.547c-6.6094-0.375-13.219-0.9375-19.922-0.9375-6.6094 0-13.219 0.60938-19.781 0.9375zm19.781 670.08c-159.61 0-289.55-129.94-289.55-289.69 0-159.71 129.94-289.55 289.55-289.55 159.71 0 289.69 129.84 289.69 289.55 0 159.74-129.98 289.69-289.69 289.69zm224.53-289.64c0-9.1406 7.4531-16.547 16.547-16.547h14.625c-3.7031-58.219-26.859-111.14-63.234-152.53l-10.312 10.453c-3.2344 3.2344-7.4531 4.7812-11.625 4.7812-4.2188 0-8.5312-1.5469-11.766-4.7812-6.4688-6.4688-6.4688-17.062 0-23.391l10.312-10.453c-41.297-36.234-94.219-59.391-152.53-63.234v14.766c0 9.1406-7.3125 16.547-16.547 16.547-9.1406 0-16.453-7.4531-16.453-16.547v-14.766c-58.312 3.8438-111.23 27-152.53 63.234l10.359 10.406c6.4688 6.375 6.4688 16.922 0 23.391-3.2344 3.2344-7.5469 4.7812-11.766 4.7812s-8.3906-1.5469-11.625-4.7812l-10.312-10.453c-36.375 41.391-59.531 94.312-63.234 152.53h14.625c9.1406 0 16.547 7.4531 16.547 16.547 0 9.1406-7.4531 16.547-16.547 16.547h-14.625c3.7031 58.312 26.859 111.23 63.234 152.53l10.312-10.312c6.375-6.4688 16.922-6.4688 23.391 0s6.4688 16.922 0 23.391l-10.312 10.312c41.297 36.375 94.219 59.531 152.53 63.234v-14.625c0-9.1406 7.3125-16.547 16.453-16.547 9.2344 0 16.547 7.4531 16.547 16.547v14.625c58.312-3.7031 111.23-26.859 152.53-63.234l-10.312-10.312c-6.4688-6.4688-6.4688-16.922 0-23.391s16.922-6.4688 23.391 0l10.312 10.312c36.375-41.297 59.531-94.219 63.234-152.53h-14.625c-9.1406 0.046875-16.594-7.4062-16.594-16.5zm-224.53 53.016c-3.6094 0-7.3125-0.46875-10.781-1.2188l-57 98.859c-3.1406 5.3906-8.625 8.2969-14.391 8.2969-2.7656 0-5.625-0.70312-8.2969-2.1562-7.9219-4.5469-10.547-14.766-6-22.688l57.141-99c-8.2969-9.375-13.547-21.609-13.547-35.156 0-23.391 15.375-42.938 36.469-50.062l-0.046875-138.19c0-9.1406 7.3125-16.547 16.453-16.547 9.2344 0 16.547 7.4531 16.547 16.547v138.24c21.141 7.0781 36.469 26.625 36.469 50.062 0.046875 29.25-23.719 53.016-53.016 53.016zm0-72.844c-10.922 0-19.781 8.8594-19.781 19.781 0 11.062 8.8594 19.922 19.781 19.922 11.062 0 19.922-8.8594 19.922-19.922 0-10.875-8.8594-19.781-19.922-19.781zm0 0c-10.922 0-19.781 8.8594-19.781 19.781 0 11.062 8.8594 19.922 19.781 19.922 11.062 0 19.922-8.8594 19.922-19.922 0-10.875-8.8594-19.781-19.922-19.781zm0 0c-10.922 0-19.781 8.8594-19.781 19.781 0 11.062 8.8594 19.922 19.781 19.922 11.062 0 19.922-8.8594 19.922-19.922 0-10.875-8.8594-19.781-19.922-19.781zm224.53 19.828c0-9.1406 7.4531-16.547 16.547-16.547h14.625c-3.7031-58.219-26.859-111.14-63.234-152.53l-10.312 10.453c-3.2344 3.2344-7.4531 4.7812-11.625 4.7812-4.2188 0-8.5312-1.5469-11.766-4.7812-6.4688-6.4688-6.4688-17.062 0-23.391l10.312-10.453c-41.297-36.234-94.219-59.391-152.53-63.234v14.766c0 9.1406-7.3125 16.547-16.547 16.547-9.1406 0-16.453-7.4531-16.453-16.547v-14.766c-58.312 3.8438-111.23 27-152.53 63.234l10.359 10.406c6.4688 6.375 6.4688 16.922 0 23.391-3.2344 3.2344-7.5469 4.7812-11.766 4.7812s-8.3906-1.5469-11.625-4.7812l-10.312-10.453c-36.375 41.391-59.531 94.312-63.234 152.53h14.625c9.1406 0 16.547 7.4531 16.547 16.547 0 9.1406-7.4531 16.547-16.547 16.547h-14.625c3.7031 58.312 26.859 111.23 63.234 152.53l10.312-10.312c6.375-6.4688 16.922-6.4688 23.391 0s6.4688 16.922 0 23.391l-10.312 10.312c41.297 36.375 94.219 59.531 152.53 63.234v-14.625c0-9.1406 7.3125-16.547 16.453-16.547 9.2344 0 16.547 7.4531 16.547 16.547v14.625c58.312-3.7031 111.23-26.859 152.53-63.234l-10.312-10.312c-6.4688-6.4688-6.4688-16.922 0-23.391s16.922-6.4688 23.391 0l10.312 10.312c36.375-41.297 59.531-94.219 63.234-152.53h-14.625c-9.1406 0.046875-16.594-7.4062-16.594-16.5zm-224.53 53.016c-3.6094 0-7.3125-0.46875-10.781-1.2188l-57 98.859c-3.1406 5.3906-8.625 8.2969-14.391 8.2969-2.7656 0-5.625-0.70312-8.2969-2.1562-7.9219-4.5469-10.547-14.766-6-22.688l57.141-99c-8.2969-9.375-13.547-21.609-13.547-35.156 0-23.391 15.375-42.938 36.469-50.062l-0.046875-138.19c0-9.1406 7.3125-16.547 16.453-16.547 9.2344 0 16.547 7.4531 16.547 16.547v138.24c21.141 7.0781 36.469 26.625 36.469 50.062 0.046875 29.25-23.719 53.016-53.016 53.016zm0-72.844c-10.922 0-19.781 8.8594-19.781 19.781 0 11.062 8.8594 19.922 19.781 19.922 11.062 0 19.922-8.8594 19.922-19.922 0-10.875-8.8594-19.781-19.922-19.781zm0 0c-10.922 0-19.781 8.8594-19.781 19.781 0 11.062 8.8594 19.922 19.781 19.922 11.062 0 19.922-8.8594 19.922-19.922 0-10.875-8.8594-19.781-19.922-19.781zm0 0c-10.922 0-19.781 8.8594-19.781 19.781 0 11.062 8.8594 19.922 19.781 19.922 11.062 0 19.922-8.8594 19.922-19.922 0-10.875-8.8594-19.781-19.922-19.781zm224.53 19.828c0-9.1406 7.4531-16.547 16.547-16.547h14.625c-3.7031-58.219-26.859-111.14-63.234-152.53l-10.312 10.453c-3.2344 3.2344-7.4531 4.7812-11.625 4.7812-4.2188 0-8.5312-1.5469-11.766-4.7812-6.4688-6.4688-6.4688-17.062 0-23.391l10.312-10.453c-41.297-36.234-94.219-59.391-152.53-63.234v14.766c0 9.1406-7.3125 16.547-16.547 16.547-9.1406 0-16.453-7.4531-16.453-16.547v-14.766c-58.312 3.8438-111.23 27-152.53 63.234l10.359 10.406c6.4688 6.375 6.4688 16.922 0 23.391-3.2344 3.2344-7.5469 4.7812-11.766 4.7812s-8.3906-1.5469-11.625-4.7812l-10.312-10.453c-36.375 41.391-59.531 94.312-63.234 152.53h14.625c9.1406 0 16.547 7.4531 16.547 16.547 0 9.1406-7.4531 16.547-16.547 16.547h-14.625c3.7031 58.312 26.859 111.23 63.234 152.53l10.312-10.312c6.375-6.4688 16.922-6.4688 23.391 0s6.4688 16.922 0 23.391l-10.312 10.312c41.297 36.375 94.219 59.531 152.53 63.234v-14.625c0-9.1406 7.3125-16.547 16.453-16.547 9.2344 0 16.547 7.4531 16.547 16.547v14.625c58.312-3.7031 111.23-26.859 152.53-63.234l-10.312-10.312c-6.4688-6.4688-6.4688-16.922 0-23.391s16.922-6.4688 23.391 0l10.312 10.312c36.375-41.297 59.531-94.219 63.234-152.53h-14.625c-9.1406 0.046875-16.594-7.4062-16.594-16.5zm-224.53 53.016c-3.6094 0-7.3125-0.46875-10.781-1.2188l-57 98.859c-3.1406 5.3906-8.625 8.2969-14.391 8.2969-2.7656 0-5.625-0.70312-8.2969-2.1562-7.9219-4.5469-10.547-14.766-6-22.688l57.141-99c-8.2969-9.375-13.547-21.609-13.547-35.156 0-23.391 15.375-42.938 36.469-50.062l-0.046875-138.19c0-9.1406 7.3125-16.547 16.453-16.547 9.2344 0 16.547 7.4531 16.547 16.547v138.24c21.141 7.0781 36.469 26.625 36.469 50.062 0.046875 29.25-23.719 53.016-53.016 53.016zm0-72.844c-10.922 0-19.781 8.8594-19.781 19.781 0 11.062 8.8594 19.922 19.781 19.922 11.062 0 19.922-8.8594 19.922-19.922 0-10.875-8.8594-19.781-19.922-19.781zm0 0c-10.922 0-19.781 8.8594-19.781 19.781 0 11.062 8.8594 19.922 19.781 19.922 11.062 0 19.922-8.8594 19.922-19.922 0-10.875-8.8594-19.781-19.922-19.781zm0 0c-10.922 0-19.781 8.8594-19.781 19.781 0 11.062 8.8594 19.922 19.781 19.922 11.062 0 19.922-8.8594 19.922-19.922 0-10.875-8.8594-19.781-19.922-19.781zm-488.86-64.922h-98.625c-9.1406 0-16.547 7.3125-16.547 16.453 0 9.2344 7.4531 16.547 16.547 16.547h98.625c9.1406 0 16.547-7.3125 16.547-16.547 0-9.1406-7.4531-16.453-16.547-16.453zm121.92-68.25h-84c-9.1406 0-16.547 7.3125-16.547 16.547 0 9.1406 7.4531 16.547 16.547 16.547h84c9.1406 0 16.547-7.4531 16.547-16.547 0-9.2344-7.4531-16.547-16.547-16.547zm0-136.6h-114.47c-9.1406 0-16.547 7.4531-16.547 16.547 0 9.1406 7.4531 16.547 16.547 16.547h114.47c9.1406 0 16.547-7.4531 16.547-16.547s-7.4531-16.547-16.547-16.547zm-158.53 136.6h-28.922c-9.1406 0-16.547 7.3125-16.547 16.547 0 9.1406 7.4531 16.547 16.547 16.547h28.922c9.1406 0 16.547-7.4531 16.547-16.547 0-9.2344-7.4531-16.547-16.547-16.547zm66.938-68.297h-118.69c-9.1406 0-16.547 7.4531-16.547 16.547 0 9.1406 7.4531 16.547 16.547 16.547h118.69c9.1406 0 16.547-7.4531 16.547-16.547 0.046875-9.0938-7.4062-16.547-16.547-16.547zm-30.328 273h-98.625c-9.1406 0-16.547 7.4531-16.547 16.547 0 9.1406 7.4531 16.547 16.547 16.547h98.625c9.1406 0 16.547-7.4531 16.547-16.547s-7.4531-16.547-16.547-16.547zm121.92 68.297h-84c-9.1406 0-16.547 7.4531-16.547 16.547 0 9.1406 7.4531 16.547 16.547 16.547h84c9.1406 0 16.547-7.4531 16.547-16.547 0-9.1406-7.4531-16.547-16.547-16.547zm0 136.55h-114.47c-9.1406 0-16.547 7.4531-16.547 16.547 0 9.1406 7.4531 16.547 16.547 16.547h114.47c9.1406 0 16.547-7.4531 16.547-16.547s-7.4531-16.547-16.547-16.547zm-158.53-136.55h-28.922c-9.1406 0-16.547 7.4531-16.547 16.547 0 9.1406 7.4531 16.547 16.547 16.547h28.922c9.1406 0 16.547-7.4531 16.547-16.547 0-9.1406-7.4531-16.547-16.547-16.547zm66.938 68.25h-118.69c-9.1406 0-16.547 7.3125-16.547 16.547 0 9.1406 7.4531 16.547 16.547 16.547h118.69c9.1406 0 16.547-7.4531 16.547-16.547 0.046875-9.2344-7.4062-16.547-16.547-16.547z"/>
</svg>
